<?xml version="1.0" encoding="UTF-8" standalone="no"?>
<svg
   xmlns:dc="http://purl.org/dc/elements/1.1/"
   xmlns:cc="http://creativecommons.org/ns#"
   xmlns:rdf="http://www.w3.org/1999/02/22-rdf-syntax-ns#"
   xmlns:svg="http://www.w3.org/2000/svg"
   xmlns="http://www.w3.org/2000/svg"
   xmlns:sodipodi="http://sodipodi.sourceforge.net/DTD/sodipodi-0.dtd"
   xmlns:inkscape="http://www.inkscape.org/namespaces/inkscape"
   inkscape:version="1.0 (4035a4fb49, 2020-05-01)"
   sodipodi:docname="space-background_color.svg"
   xml:space="preserve"
   style="enable-background:new 0 0 1440 400;"
   viewBox="0 0 1440 400"
   y="0px"
   x="0px"
   id="Layer_1"
   version="1.1"><metadata
   id="metadata164"><rdf:RDF><cc:Work
       rdf:about=""><dc:format>image/svg+xml</dc:format><dc:type
         rdf:resource="http://purl.org/dc/dcmitype/StillImage" /><dc:title></dc:title></cc:Work></rdf:RDF></metadata><defs
   id="defs162" /><sodipodi:namedview
   inkscape:current-layer="Layer_1"
   inkscape:window-maximized="1"
   inkscape:window-y="-8"
   inkscape:window-x="-8"
   inkscape:cy="200"
   inkscape:cx="720"
   inkscape:zoom="0.85277778"
   showgrid="false"
   id="namedview160"
   inkscape:window-height="1017"
   inkscape:window-width="1920"
   inkscape:pageshadow="2"
   inkscape:pageopacity="0"
   guidetolerance="10"
   gridtolerance="10"
   objecttolerance="10"
   borderopacity="1"
   bordercolor="#666666"
   pagecolor="#ffffff" />
<style
   id="style2"
   type="text/css">
	.st0{opacity:0.5;fill:#FFFFFF;}
	.st1{fill:#FFFFFF;}
	.st2{stroke:#000000;stroke-miterlimit:10;}
	.st3{fill:#FFFFFF;stroke:#000000;stroke-miterlimit:10;}
	.st4{opacity:0.5;fill:#FFFFFF;stroke:#000000;stroke-miterlimit:10;}
	.st5{opacity:0.3;fill:#FFFFFF;stroke:#000000;stroke-miterlimit:10;}
	.st6{fill:none;stroke:#000000;stroke-width:5.2188;stroke-miterlimit:10;stroke-dasharray:12.5251;}
	.st7{fill:none;stroke:#000000;stroke-width:5;stroke-miterlimit:10;stroke-dasharray:12;}
	.st8{opacity:0.2;fill:#FFFFFF;}
</style>
<circle
   id="circle4"
   r="26.5"
   cy="139.5"
   cx="1055.5"
   class="st0" />
<circle
   id="circle6"
   r="45"
   cy="242"
   cx="964"
   class="st0" />
<path
   id="path8"
   d="M969.4,87.2c4.8,1.7,7.3,5.1,7.7,10c5-1.3,9.1,0,12.5,3.9c3.3-4,7.5-5.1,12.5-3.8c0.2-5.2,3-8.3,7.7-10.1  c-1.3-2-2.3-4-2.1-6.2c0.3-2.1,1-4.1,1.6-6.3c-4.3-1.6-6.9-4.8-7.2-9.9c-5,1.2-9.2,0-12.5-3.9c-3.4,4-7.5,5.2-12.4,3.9  c-0.4,5.1-3,8.3-7.7,10.1C972.2,79,972.1,83.1,969.4,87.2z"
   class="st0" />
<path
   id="path10"
   d="M1015.2,135.8c0-17.6,14.1-31.7,31.7-31.7c17.5,0,31.7,14.2,31.7,31.7c0,17.4-14.3,31.7-31.7,31.7  C1029.4,167.5,1015.2,153.3,1015.2,135.8z M1073.7,143.4c-0.7,0-1.4,0-2,0c-6.7,0-13.4,0-20.1,0c-0.7,0-1.5,0.1-2-0.2  c-0.6-0.4-1.3-1.2-1.3-1.9c0-0.5,0.8-1.2,1.4-1.6c0.4-0.2,1-0.1,1.5-0.1c7.3,0,14.5,0,21.8,0c0.9,0,1.6,0,1.7-1.3  c0.4-5.8-0.6-11.2-3.4-16.3c-0.5-0.9-1.1-1.3-2.2-1.3c-4,0.1-8,0-12,0c-2,0-3-0.7-2.9-1.9c0.2-1.7,1.5-1.8,2.8-1.8c3,0,6.1,0,9.1,0  c0.3,0,0.7-0.1,1.1-0.2c-5.9-7.4-18-11.4-28.7-8c-8.2,2.6-17.3,11.2-17.5,16.8c0.5,0,0.9,0,1.4,0c7.2,0,14.4,0,21.6,0  c1.9,0,2.7,0.7,2.6,2c-0.2,1.6-1.3,1.7-2.6,1.7c-5,0-9.9,0-14.9,0c-3.1,0-6.3,0-9.6,0c-0.2,1.5-0.4,2.8-0.6,4.4c6.4,0,12.5,0,18.6,0  c0.7,0,1.5-0.1,2,0.2c0.6,0.4,1.2,1.2,1.2,1.8c0,0.6-0.8,1.2-1.4,1.6c-0.4,0.3-1.1,0.1-1.7,0.1c-5.5,0-11,0-16.5,0c-0.7,0-1.3,0-2,0  c0,9.2,7.1,22.2,21.4,25.5c11.8,2.7,23.6-2.6,29-11.3c-0.6,0-1.2-0.1-1.7-0.1c-2.6,0-5.3,0-7.9,0c-1.2,0-2.4-0.3-2.4-1.8  c0-1.5,1.1-1.8,2.4-1.8c2.8,0,5.6,0,8.4,0c4,0,4,0,5.2-3.9C1073.7,144,1073.7,143.9,1073.7,143.4z" />
<g
   id="g16">
	<path
   id="path12"
   d="M974.1,64.8c-0.1-0.5-0.2-1.1-0.3-1.7c-0.2-0.8-0.5-1.6,0.3-2.2c0.9-0.7,1.6-0.1,2.3,0.3c3,1.6,5.9,1.6,8.7-0.2   c1.2-0.8,1.9-2.3,2.9-3.4c0.5-0.5,1-1.3,1.5-1.3c0.5,0,1.2,0.8,1.5,1.3c2,4.4,7.2,6.2,11.5,3.7c0.2-0.1,0.4-0.3,0.6-0.3   c0.6-0.1,1.4-0.3,1.7-0.1c0.4,0.3,0.6,1.2,0.6,1.7c-1,5.6,1.8,9.2,7.3,9.7c0.6,0.1,1.5,0.6,1.6,1c0.1,0.6-0.3,1.4-0.8,1.8   c-4,3.3-4,8.4,0,11.7c0.5,0.4,0.9,1.2,0.8,1.7c-0.1,0.5-1,1-1.6,1c-1.9,0.3-3.8,0.7-5.2,2.1c-2.2,2-3,4.4-2.2,7.2   c0.2,0.9,0.5,1.8-0.5,2.2c-0.5,0.2-1.5,0-2-0.3c-4.3-2.6-9.6-0.9-11.7,3.6c-0.3,0.6-1,1.3-1.6,1.3c-0.4,0-1.2-0.7-1.4-1.3   c-2.1-4.5-6.9-6.2-11.3-3.8c-0.4,0.2-0.8,0.5-1.2,0.6c-1.2,0.4-2.1-0.5-1.9-1.7c1.1-5.8-1.6-9.4-7.4-10c-0.5-0.1-1.4-0.6-1.4-1   c-0.1-0.5,0.3-1.4,0.8-1.7c3.2-2.7,4-6.6,1.7-9.8c-0.5-0.7-1.2-1.1-1.7-1.8c-0.4-0.5-0.9-1.3-0.8-1.9c0.1-0.4,1-0.9,1.6-1   c4.1-0.4,6.8-2.5,7.5-6.2C974,65.8,974,65.4,974.1,64.8z M969.4,87.2c4.8,1.7,7.3,5.1,7.7,10c5-1.3,9.1,0,12.5,3.9   c3.3-4,7.5-5.1,12.5-3.8c0.2-5.2,3-8.3,7.7-10.1c-1.3-2-2.3-4-2.1-6.2c0.3-2.1,1-4.1,1.6-6.3c-4.3-1.6-6.9-4.8-7.2-9.9   c-5,1.2-9.2,0-12.5-3.9c-3.4,4-7.5,5.2-12.4,3.9c-0.4,5.1-3,8.3-7.7,10.1C972.2,79,972.1,83.1,969.4,87.2z" />
	<path
   id="path14"
   d="M976.7,81c0-7.2,5.8-12.8,13.2-12.8c6.7,0,12.4,6,12.4,12.8c0,7-5.8,12.7-12.8,12.8C982.5,93.8,976.7,88.1,976.7,81z    M989.5,90.9c5.5,0,9.9-4.5,9.9-10c0-5.5-4.5-9.9-10-9.9c-5.5,0-9.9,4.4-9.9,10C979.6,86.5,984,90.9,989.5,90.9z" />
</g>
<g
   id="g46">
	<path
   id="path18"
   d="M1018.3,244.5c-0.1,28.9-23.6,52-52.9,51.5c-28.9-0.4-51.1-24.1-50.9-52.3c0.2-28.3,23.8-51.5,52.7-51.1   C996.3,193,1018.5,216.9,1018.3,244.5z M1008.4,267.5c11.3-19.3,6-44-7.9-56.6c-0.2,0.1-0.4,0.2-0.6,0.3c-3.7,3-7.8,3.3-11.4,1   c-3.5-2.2-4.9-6-3.7-10.6c0.4-1.4-0.3-1.6-1.3-2c-9.7-3.8-19.6-4.1-29.6-1.4c-3.1,0.8-6.1,2.2-9.3,3.3c2.4,5.2,2.4,9.8-1.6,13.4   c-4.6,4.2-9.7,4-14.5,0.3c-11.1,12.4-12.9,34-6.8,45.8c4.3-1.3,8.1-0.5,10.8,3.2c3.2,4.4,2.2,8.7-1.4,12.7   c5.7,6.4,12.6,10.5,20.5,13.2c0.3-0.5,0.4-0.8,0.5-1c1.9-4.6,5.4-7,10-6.7c4.4,0.3,7.7,3.3,8.7,8c0.3,1.5,1.1,1.6,2.3,1.4   c6.8-1.1,13.2-3.4,19.1-7.1c0.7-0.5,1.4-1,2-1.5c-3.2-6-3.2-10.3,0.3-14C998.7,264.9,1003.4,264.6,1008.4,267.5z M930.7,212.4   c3.3,3.2,7.4,3.4,10.3,1c3.1-2.6,3.6-6.3,0.9-10.4C938.1,206.1,934.4,209.2,930.7,212.4z M1007,270.9c-3.5-2.7-7.3-2.4-9.8,0.5   c-2.4,2.8-2.3,7,0.7,9.7C1000.8,277.7,1003.8,274.4,1007,270.9z M966.3,292.6c0.2-3.1-1.5-5.2-4.2-5.5c-2.9-0.3-4.8,1.2-5.3,4.4   C960,291.9,963.1,292.3,966.3,292.6z M989.8,202.3c-1,2.9-0.5,4.8,1.5,6c1.9,1.1,3.9,0.8,5.7-1.2   C994.6,205.6,992.3,204,989.8,202.3z M927.9,273c2.2-2.1,2.4-4.1,0.9-6c-1.3-1.7-3.4-2.1-5.4-0.9C925,268.4,926.4,270.7,927.9,273z   " />
	<path
   id="path20"
   d="M966.3,292.6c-3.2-0.4-6.3-0.7-9.5-1.1c0.4-3.1,2.4-4.7,5.3-4.4C964.8,287.4,966.5,289.5,966.3,292.6z"
   class="st1" />
	<path
   id="path22"
   d="M989.8,202.3c2.5,1.7,4.8,3.3,7.1,4.9c-1.7,2-3.8,2.3-5.7,1.2C989.3,207.2,988.7,205.3,989.8,202.3z"
   class="st1" />
	<path
   id="path24"
   d="M927.9,273c-1.5-2.4-3-4.6-4.5-6.9c2-1.2,4.1-0.7,5.4,0.9C930.3,268.9,930.1,271,927.9,273z"
   class="st1" />
	<path
   id="path26"
   d="M951.6,281c-6.8,0-12.1-5.5-12-12.3c0.1-6.6,5.6-12,12.2-12c6.6,0.1,12.1,5.5,12.1,12.2C963.8,275.6,958.4,281,951.6,281z    M959,269.2c0.1-4.2-3.1-7.6-7.1-7.7c-4.2-0.1-7.5,3.1-7.6,7.2c-0.1,4.1,3.1,7.5,7.3,7.5C955.6,276.3,958.9,273.2,959,269.2z" />
	<path
   id="path28"
   d="M961.5,237.4c-6.2,0.3-11.7-4.9-12.1-11.5c-0.4-6.4,4.9-12.3,11.3-12.6c7-0.3,12.6,4.6,13,11.3   C974,231.7,968.9,237.1,961.5,237.4z M961.5,232.8c4.1,0,7.5-3.3,7.5-7.3c0-4-3.3-7.5-7.1-7.6c-4.1-0.1-7.7,3.3-7.7,7.4   C954.1,229.4,957.4,232.7,961.5,232.8z" />
	<path
   id="path30"
   d="M994.4,219.5c5.5,0,10.1,4.6,10.1,10.1c0,5.5-4.6,10.1-10.2,10c-5.4-0.1-9.9-4.6-10-10   C984.3,224.2,988.9,219.5,994.4,219.5z M999.7,229.6c0-3-2.3-5.3-5.3-5.2c-3,0-5.3,2.4-5.3,5.3c0,2.8,2.4,5.3,5.1,5.3   C997.2,235,999.7,232.5,999.7,229.6z" />
	<path
   id="path32"
   d="M944.1,239.8c0,5.4-4.5,10-9.8,10c-5.9-0.1-10.3-4.4-10.3-10.1c0-5.4,4.5-10,9.8-10C939.6,229.7,944.1,234.1,944.1,239.8z    M928.7,239.7c0,2.9,2.4,5.3,5.3,5.3c2.9,0,5.2-2.3,5.3-5.2c0.1-2.9-2.3-5.3-5.3-5.4C931.1,234.5,928.7,236.8,928.7,239.7z" />
	<path
   id="path34"
   d="M969.1,253.7c0-5.5,4.4-9.9,9.9-9.9c5.5,0,10,4.4,10,9.9c0,5.5-4.5,10-9.9,10C973.7,263.6,969.1,259.1,969.1,253.7z    M984.3,253.6c0-2.9-2.3-5.1-5.2-5.1c-2.9,0-5.1,2.3-5.1,5.2c0,2.8,2.2,5.1,5,5.1C981.9,258.9,984.3,256.6,984.3,253.6z" />
	<path
   id="path36"
   d="M960.8,269.2c-0.1,4.9-4.2,8.8-9.3,8.8c-5.1-0.1-9.1-4.2-9-9.3c0.1-5.1,4.2-9,9.4-8.9   C957,259.9,960.9,264.1,960.8,269.2z"
   class="st1" />
	<path
   id="path38"
   d="M961.4,234.8c-5.2,0-9.4-4.4-9.3-9.6c0-5.2,4.6-9.5,9.9-9.4c4.9,0.1,9.1,4.5,9,9.6   C971,230.6,966.6,234.9,961.4,234.8z"
   class="st1" />
	<path
   id="path40"
   d="M1001.7,229.6c0,4.1-3.5,7.5-7.6,7.4c-3.8,0-7-3.4-7.1-7.4c0-4,3.2-7.3,7.3-7.3   C998.5,222.3,1001.7,225.4,1001.7,229.6z"
   class="st1" />
	<path
   id="path42"
   d="M926.8,239.7c0-4.1,3.2-7.2,7.3-7.2c4.1,0,7.3,3.3,7.2,7.3c-0.1,3.9-3.3,7.1-7.2,7.1   C930.1,247.1,926.8,243.8,926.8,239.7z"
   class="st1" />
	<path
   id="path44"
   d="M984.3,253.6c0,2.9-2.4,5.3-5.4,5.3c-2.8,0-4.9-2.3-5-5.1c0-2.9,2.2-5.2,5.1-5.2   C981.9,248.5,984.2,250.7,984.3,253.6z"
   class="st1" />
</g>
<g
   id="ZDwusf.tif">
	<g
   id="g94">
		<path
   id="path48"
   d="M446.8,96.2c6.4-4.6,12.7-2.7,16.3,0.9c2.2,2.2,3.2,4.9,3.4,7.9c0.1,3-0.9,5.7-2.7,8c1.2,1.5,1.2,1.6-0.2,3    c-2.2,2.2-4.4,4.4-6.6,6.6c-1.2,1.2-1.4,1.2-2.8,0.1c-1,1-2.1,2.1-3.1,3.1c1.1,1.5,1.1,1.6-0.3,2.9c-2.6,2.6-5.2,5.2-7.9,7.9    c1.2,1.2,2.4,2.4,3.7,3.7c1-1,2.1-2.1,3.2-3.2c2-2,2-2,4,0c5.2,5.2,10.4,10.4,15.6,15.6c1.2,1.2,1.2,1.6,0,2.7    c-12.5,12.5-25,25-37.5,37.5c-1.2,1.2-1.6,1.2-2.7,0c-5.4-5.4-10.8-10.7-16.1-16.1c-1.3-1.3-1.3-1.6,0-2.9    c5.8-5.8,11.7-11.7,17.5-17.5c0.7-0.7,0.8-1.1,0-1.8c-1-0.9-1.9-1.8-2.9-2.8c-1.4,1.4-2.6,2.6-3.9,3.9c-1.3,1.3-1.4,1.3-2.9,0.1    c-1,1-2,2-3,3c-0.9,0.9-1.4,0.9-2.3,0c-4.9-4.9-9.7-9.7-14.6-14.6c-1-1-1-1.3,0-2.3c1-1,2-2,2.9-2.9c-1-1.7-1-1.7,0.4-3.1    c1.2-1.2,2.4-2.4,3.6-3.6c-1.2-1.2-2.4-2.4-3.7-3.7c-0.3,0.3-0.6,0.6-0.9,0.9c-5.9,5.9-11.7,11.7-17.6,17.6    c-1.1,1.1-1.5,1.1-2.6,0c-5.5-5.4-10.9-10.9-16.4-16.4c-1.1-1.1-1.1-1.5,0-2.6c12.6-12.6,25.2-25.2,37.7-37.7c1-1,1.4-1,2.5,0    c5.5,5.5,11,11,16.4,16.4c1,1,1,1.5,0,2.5c-1.3,1.3-2.5,2.5-3.9,3.9c1.2,1.2,2.4,2.4,3.7,3.7c0.3-0.3,0.5-0.5,0.8-0.8    c2.4-2.4,4.8-4.8,7.2-7.2c1.2-1.2,1.4-1.2,2.8-0.2c1-1,2.1-2.1,3.1-3.1c-1-1.5-1-1.6,0.3-2.9c2.2-2.2,4.5-4.5,6.7-6.7    C445.2,95.1,445.5,95.1,446.8,96.2z M449,127.3c-5.5-5.5-10.9-10.9-16.3-16.3c-8.9,8.9-17.8,17.8-26.7,26.7    c5.5,5.5,10.9,10.9,16.3,16.3C431.2,145.1,440,136.2,449,127.3z M461.7,114.6c-5.5-5.5-10.9-10.9-16.3-16.3    c-2.1,2.1-4.1,4.1-6.2,6.2c5.5,5.5,10.9,10.9,16.3,16.3C457.6,118.7,459.7,116.6,461.7,114.6z M460.5,147.4    c-3.8,3.8-7.5,7.5-11.2,11.2c2.3,2.3,4.6,4.6,6.9,6.9c3.7-3.7,7.5-7.5,11.2-11.2C465,151.9,462.8,149.7,460.5,147.4z M434.7,173.1    c-3.8,3.8-7.5,7.5-11.2,11.2c2.3,2.3,4.6,4.6,6.9,6.9c3.8-3.8,7.5-7.5,11.2-11.2C439.3,177.6,437.1,175.4,434.7,173.1z     M440.6,149.8c2.4,2.4,4.6,4.6,7,7c3.7-3.7,7.4-7.4,11.2-11.2c-2.3-2.3-4.6-4.6-7-7C448,142.4,444.3,146.1,440.6,149.8z     M421.8,182.5c3.8-3.8,7.5-7.5,11.1-11.1c-2.4-2.4-4.6-4.6-6.9-6.9c-3.7,3.7-7.4,7.4-11.1,11.1    C417.2,177.9,419.5,180.2,421.8,182.5z M410.1,119.4c3.7-3.7,7.4-7.4,11.1-11.1c-2.4-2.4-4.6-4.6-6.9-6.9    c-3.7,3.7-7.4,7.4-11.1,11.1C405.5,114.8,407.8,117,410.1,119.4z M388.6,127c-3.8,3.8-7.5,7.5-11.2,11.2c2.3,2.3,4.6,4.6,6.9,6.9    c3.7-3.7,7.4-7.4,11.2-11.2C393.2,131.6,391,129.3,388.6,127z M405.7,92.6c-3.7,3.7-7.4,7.4-11.2,11.2c2.3,2.3,4.6,4.6,6.9,6.9    c3.7-3.7,7.4-7.4,11.2-11.2C410.3,97.3,408.1,95,405.7,92.6z M387,125.3c-2.4-2.4-4.7-4.7-6.9-6.9c-3.7,3.7-7.4,7.4-11.1,11.1    c2.4,2.4,4.6,4.6,6.9,6.9C379.5,132.7,383.2,129.1,387,125.3z M443.3,178.3c3.8-3.8,7.4-7.4,11.1-11.1c-2.3-2.3-4.6-4.6-6.9-6.9    c-3.7,3.7-7.4,7.4-11.1,11.1C438.7,173.7,441,175.9,443.3,178.3z M434.8,169.7c3.6-3.6,7.2-7.2,10.7-10.7c0.5-0.5,0.2-0.8-0.2-1.1    c-1.7-1.7-3.5-3.5-5.2-5.2c-0.4-0.4-0.7-0.7-1.1-1.1c-3.8,3.8-7.5,7.5-11.2,11.2C430.1,165,432.4,167.3,434.8,169.7z M408.4,121.1    c-2.3-2.3-4.6-4.6-7-7c-3.7,3.7-7.4,7.4-11.1,11.1c2.3,2.3,4.6,4.6,7,7C401,128.5,404.7,124.8,408.4,121.1z M392.9,105.5    c-3.8,3.8-7.4,7.4-11.1,11.1c2.3,2.3,4.6,4.6,6.9,6.9c3.7-3.7,7.4-7.4,11.1-11.1C397.5,110.1,395.2,107.9,392.9,105.5z M462,111.4    c3.2-3.7,2.8-9.4-0.8-12.9c-3.5-3.4-9.3-3.6-12.7-0.6C453.1,102.4,457.6,106.9,462,111.4z M409.6,130.7c4-4,8-8,11.9-11.9    c-1.3-1.3-2.5-2.5-3.6-3.6c-4,4-7.9,7.9-11.9,11.9C407.2,128.3,408.4,129.4,409.6,130.7z M441.2,138.5c-4,4-7.9,7.9-11.9,11.9    c1.2,1.2,2.4,2.4,3.6,3.6c4-4,7.9-7.9,11.9-11.9C443.6,140.9,442.5,139.8,441.2,138.5z M435.8,110.6c4.6,4.6,9.1,9.1,13.6,13.6    c1.1-1.1,2.1-2.1,3.1-3.1c-4.6-4.6-9.1-9.1-13.6-13.6C437.8,108.6,436.8,109.6,435.8,110.6z M419.3,154.4c-4.5-4.5-9-9-13.6-13.6    c-0.9,0.9-1.7,1.7-2.5,2.5c4.6,4.6,9.1,9.1,13.6,13.6C417.6,156,418.4,155.2,419.3,154.4z"
   class="st2" />
		<path
   id="path50"
   d="M401.5,156.9c1-1,2-2,3-3c0.6-0.6,1.2-1,1.9-0.3c0.7,0.7,0.3,1.4-0.2,1.9c-2.1,2.1-4.2,4.2-6.3,6.3    c-0.6,0.6-1.3,0.9-1.9,0.3c-0.7-0.7-0.3-1.4,0.3-2C399.3,159,400.4,158,401.5,156.9z"
   class="st2" />
		<path
   id="path52"
   d="M410.1,162.6c-0.6,0.6-1.1,1.2-1.8,1.7c-0.5,0.5-1.2,0.6-1.7,0c-0.5-0.5-0.4-1.2,0.1-1.6    c1.2-1.2,2.4-2.5,3.6-3.6c0.5-0.5,1.2-0.6,1.7,0c0.5,0.6,0.3,1.1-0.1,1.6C411.3,161.4,410.7,162,410.1,162.6z"
   class="st2" />
		<path
   id="path54"
   d="M397.5,149.9c0.6-0.6,1.2-1.2,1.7-1.7c0.5-0.5,1.1-0.6,1.6-0.1c0.6,0.5,0.5,1.2,0,1.7    c-1.2,1.2-2.4,2.5-3.6,3.6c-0.5,0.5-1.1,0.6-1.6,0.1c-0.5-0.5-0.5-1.2,0.1-1.7C396.3,151.1,396.9,150.5,397.5,149.9z"
   class="st2" />
		<path
   id="path56"
   d="M449,127.3c-8.9,8.9-17.8,17.8-26.7,26.7c-5.4-5.4-10.8-10.8-16.3-16.3c8.9-8.9,17.8-17.8,26.7-26.7    C438.1,116.5,443.5,121.9,449,127.3z"
   class="st3" />
		<path
   id="path58"
   d="M461.7,114.6c-2.1,2.1-4.1,4.1-6.2,6.2c-5.4-5.4-10.8-10.8-16.3-16.3c2.1-2.1,4.1-4.1,6.2-6.2    C450.9,103.7,456.3,109.1,461.7,114.6z"
   class="st3" />
		<path
   id="path60"
   d="M460.5,147.4c2.3,2.3,4.6,4.6,6.9,6.9c-3.7,3.7-7.4,7.4-11.2,11.2c-2.3-2.3-4.6-4.6-6.9-6.9    C453,154.8,456.7,151.1,460.5,147.4z"
   class="st4" />
		<path
   id="path62"
   d="M434.7,173.1c2.3,2.3,4.6,4.6,6.9,6.9c-3.7,3.7-7.4,7.4-11.2,11.2c-2.3-2.3-4.5-4.5-6.9-6.9    C427.3,180.6,431,176.9,434.7,173.1z"
   class="st4" />
		<path
   id="path64"
   d="M440.6,149.8c3.7-3.7,7.4-7.4,11.2-11.2c2.3,2.3,4.6,4.6,7,7c-3.7,3.7-7.4,7.4-11.2,11.2    C445.2,154.5,443,152.2,440.6,149.8z"
   class="st4" />
		<path
   id="path66"
   d="M421.8,182.5c-2.3-2.3-4.6-4.6-6.9-6.9c3.7-3.7,7.4-7.4,11.1-11.1c2.3,2.3,4.6,4.6,6.9,6.9    C429.3,175.1,425.6,178.8,421.8,182.5z"
   class="st4" />
		<path
   id="path68"
   d="M410.1,119.4c-2.3-2.3-4.6-4.6-6.9-6.9c3.7-3.7,7.4-7.4,11.1-11.1c2.3,2.3,4.6,4.6,6.9,6.9    C417.5,111.9,413.8,115.6,410.1,119.4z"
   class="st4" />
		<path
   id="path70"
   d="M388.6,127c2.3,2.3,4.6,4.6,6.9,6.9c-3.7,3.7-7.4,7.4-11.2,11.2c-2.3-2.3-4.6-4.6-6.9-6.9    C381.2,134.5,384.9,130.8,388.6,127z"
   class="st4" />
		<path
   id="path72"
   d="M405.7,92.6c2.3,2.3,4.6,4.6,6.9,6.9c-3.7,3.7-7.4,7.4-11.2,11.2c-2.3-2.3-4.6-4.6-6.9-6.9    C398.3,100.1,402,96.4,405.7,92.6z"
   class="st4" />
		<path
   id="path74"
   d="M387,125.3c-3.7,3.7-7.4,7.4-11.1,11.1c-2.3-2.3-4.6-4.6-6.9-6.9c3.7-3.7,7.4-7.4,11.1-11.1    C382.3,120.7,384.6,123,387,125.3z"
   class="st4" />
		<path
   id="path76"
   d="M443.3,178.3c-2.3-2.3-4.6-4.6-6.9-6.9c3.7-3.7,7.4-7.4,11.1-11.1c2.3,2.3,4.6,4.6,6.9,6.9    C450.8,170.8,447.1,174.5,443.3,178.3z"
   class="st4" />
		<path
   id="path78"
   d="M434.8,169.7c-2.4-2.4-4.7-4.7-7-7c3.7-3.7,7.4-7.4,11.2-11.2c0.4,0.4,0.7,0.7,1.1,1.1    c1.7,1.7,3.5,3.5,5.2,5.2c0.3,0.3,0.7,0.6,0.2,1.1C441.9,162.5,438.4,166.1,434.8,169.7z"
   class="st4" />
		<path
   id="path80"
   d="M408.4,121.1c-3.7,3.7-7.4,7.4-11.1,11.1c-2.3-2.3-4.6-4.6-7-7c3.7-3.7,7.4-7.4,11.1-11.1    C403.8,116.4,406.1,118.7,408.4,121.1z"
   class="st4" />
		<path
   id="path82"
   d="M392.9,105.5c2.4,2.4,4.6,4.6,6.9,6.9c-3.7,3.7-7.4,7.4-11.1,11.1c-2.3-2.3-4.6-4.6-6.9-6.9    C385.4,112.9,389.1,109.3,392.9,105.5z"
   class="st4" />
		<path
   id="path84"
   d="M462,111.4c-4.5-4.5-9-9-13.4-13.4c3.4-3.1,9.2-2.8,12.7,0.6C464.8,102,465.2,107.7,462,111.4z"
   class="st4" />
		<path
   id="path86"
   d="M409.6,130.7c-1.2-1.2-2.4-2.4-3.6-3.6c4-4,7.9-7.9,11.9-11.9c1.2,1.2,2.4,2.4,3.6,3.6    C417.5,122.7,413.6,126.6,409.6,130.7z"
   class="st5" />
		<path
   id="path88"
   d="M441.2,138.5c1.2,1.2,2.4,2.4,3.6,3.6c-4,4-7.9,7.9-11.9,11.9c-1.2-1.2-2.4-2.4-3.6-3.6    C433.3,146.5,437.2,142.5,441.2,138.5z"
   class="st5" />
		<path
   id="path90"
   d="M435.8,110.6c1-1,2-2,3.1-3.1c4.5,4.5,9.1,9.1,13.6,13.6c-1,1-2,2-3.1,3.1    C444.9,119.7,440.3,115.2,435.8,110.6z"
   class="st5" />
		<path
   id="path92"
   d="M419.3,154.4c-0.8,0.8-1.6,1.6-2.5,2.5c-4.5-4.5-9-9-13.6-13.6c0.8-0.8,1.6-1.6,2.5-2.5    C410.2,145.3,414.7,149.8,419.3,154.4z"
   class="st5" />
	</g>
</g>
<path
   id="path97"
   d="M391.5,169.5c-98,115-39,354,262.7,311c298.8-42.6,305-77,305-77"
   class="st6" />
<path
   id="path99"
   d="M968.5,182.5c-1-19,20-42,46-42"
   class="st7" />
<path
   id="path101"
   d="M1057.5,95.5c0-18,0-65-68-65s-58-75-58-75"
   class="st7" />
<path
   id="path103"
   d="M989.5,90.9c5.5,0,9.9-4.5,9.9-10c0-5.5-4.5-9.9-10-9.9c-5.5,0-9.9,4.4-9.9,10C979.6,86.5,984,90.9,989.5,90.9z  "
   class="st1" />
<path
   id="path105"
   d="M672.8,40.5c-6.5,0-11.8-5.3-11.8-11.8c0-0.1,0-0.2,0-0.2c-0.2,0-0.3,0-0.5,0c0,0.1,0,0.1,0,0.2  c0,6.2-4.9,11.3-11,11.7c0,0.2,0,0.4,0,0.6c5.8,0.4,10.5,5.1,10.9,10.9c0.2,0,0.4,0,0.6,0c0.4-6.1,5.5-11,11.7-11c0.1,0,0.1,0,0.2,0  c0-0.2,0-0.3,0-0.5C672.9,40.5,672.8,40.5,672.8,40.5z"
   class="st8" />
<path
   id="path107"
   d="M591.9,91.9c-2.9,0-5.2-2.4-5.2-5.2c0,0,0-0.1,0-0.1c-0.1,0-0.2,0-0.2,0c0,0,0,0.1,0,0.1c0,2.8-2.2,5.1-4.9,5.2  c0,0.1,0,0.2,0,0.3c2.6,0.2,4.7,2.3,4.9,4.9c0.1,0,0.2,0,0.3,0c0.2-2.7,2.4-4.9,5.2-4.9c0,0,0.1,0,0.1,0c0-0.1,0-0.2,0-0.2  C592,91.9,591.9,91.9,591.9,91.9z"
   class="st8" />
<path
   id="path109"
   d="M505.9,33.9c-2.9,0-5.2-2.4-5.2-5.2c0,0,0-0.1,0-0.1c-0.1,0-0.2,0-0.2,0c0,0,0,0.1,0,0.1c0,2.8-2.2,5.1-4.9,5.2  c0,0.1,0,0.2,0,0.3c2.6,0.2,4.7,2.3,4.9,4.9c0.1,0,0.2,0,0.3,0c0.2-2.7,2.4-4.9,5.2-4.9c0,0,0.1,0,0.1,0c0-0.1,0-0.2,0-0.2  C506,33.9,505.9,33.9,505.9,33.9z"
   class="st8" />
<path
   id="path111"
   d="M373.9,33.9c-2.9,0-5.2-2.4-5.2-5.2c0,0,0-0.1,0-0.1c-0.1,0-0.2,0-0.2,0c0,0,0,0.1,0,0.1c0,2.8-2.2,5.1-4.9,5.2  c0,0.1,0,0.2,0,0.3c2.6,0.2,4.7,2.3,4.9,4.9c0.1,0,0.2,0,0.3,0c0.2-2.7,2.4-4.9,5.2-4.9c0,0,0.1,0,0.1,0c0-0.1,0-0.2,0-0.2  C374,33.9,373.9,33.9,373.9,33.9z"
   class="st8" />
<path
   id="path113"
   d="M150.9,136.9c-2.9,0-5.2-2.4-5.2-5.2c0,0,0-0.1,0-0.1c-0.1,0-0.2,0-0.2,0c0,0,0,0.1,0,0.1  c0,2.8-2.2,5.1-4.9,5.2c0,0.1,0,0.2,0,0.3c2.6,0.2,4.7,2.3,4.9,4.9c0.1,0,0.2,0,0.3,0c0.2-2.7,2.4-4.9,5.2-4.9c0,0,0.1,0,0.1,0  c0-0.1,0-0.2,0-0.2C151,136.9,150.9,136.9,150.9,136.9z"
   class="st8" />
<path
   id="path115"
   d="M62.9,238.9c-2.9,0-5.2-2.4-5.2-5.2c0,0,0-0.1,0-0.1c-0.1,0-0.2,0-0.2,0c0,0,0,0.1,0,0.1c0,2.8-2.2,5.1-4.9,5.2  c0,0.1,0,0.2,0,0.3c2.6,0.2,4.7,2.3,4.9,4.9c0.1,0,0.2,0,0.3,0c0.2-2.7,2.4-4.9,5.2-4.9c0,0,0.1,0,0.1,0c0-0.1,0-0.2,0-0.2  C63,238.9,62.9,238.9,62.9,238.9z"
   class="st8" />
<path
   id="path117"
   d="M112.9,283.9c-2.9,0-5.2-2.4-5.2-5.2c0,0,0-0.1,0-0.1c-0.1,0-0.2,0-0.2,0c0,0,0,0.1,0,0.1  c0,2.8-2.2,5.1-4.9,5.2c0,0.1,0,0.2,0,0.3c2.6,0.2,4.7,2.3,4.9,4.9c0.1,0,0.2,0,0.3,0c0.2-2.7,2.4-4.9,5.2-4.9c0,0,0.1,0,0.1,0  c0-0.1,0-0.2,0-0.2C113,283.9,112.9,283.9,112.9,283.9z"
   class="st8" />
<path
   id="path119"
   d="M67.9,130.9c-2.9,0-5.2-2.4-5.2-5.2c0,0,0-0.1,0-0.1c-0.1,0-0.2,0-0.2,0c0,0,0,0.1,0,0.1c0,2.8-2.2,5.1-4.9,5.2  c0,0.1,0,0.2,0,0.3c2.6,0.2,4.7,2.3,4.9,4.9c0.1,0,0.2,0,0.3,0c0.2-2.7,2.4-4.9,5.2-4.9c0,0,0.1,0,0.1,0c0-0.1,0-0.2,0-0.2  C68,130.9,67.9,130.9,67.9,130.9z"
   class="st8" />
<path
   id="path121"
   d="M638.9,114.9c-2.9,0-5.2-2.4-5.2-5.2c0,0,0-0.1,0-0.1c-0.1,0-0.2,0-0.2,0c0,0,0,0.1,0,0.1  c0,2.8-2.2,5.1-4.9,5.2c0,0.1,0,0.2,0,0.3c2.6,0.2,4.7,2.3,4.9,4.9c0.1,0,0.2,0,0.3,0c0.2-2.7,2.4-4.9,5.2-4.9c0,0,0.1,0,0.1,0  c0-0.1,0-0.2,0-0.2C639,114.9,638.9,114.9,638.9,114.9z"
   class="st8" />
<path
   id="path123"
   d="M1153.9,311.9c-2.9,0-5.2-2.4-5.2-5.2c0,0,0-0.1,0-0.1c-0.1,0-0.2,0-0.2,0c0,0,0,0.1,0,0.1  c0,2.8-2.2,5.1-4.9,5.2c0,0.1,0,0.2,0,0.3c2.6,0.2,4.7,2.3,4.9,4.9c0.1,0,0.2,0,0.3,0c0.2-2.7,2.4-4.9,5.2-4.9c0,0,0.1,0,0.1,0  c0-0.1,0-0.2,0-0.2C1154,311.9,1153.9,311.9,1153.9,311.9z"
   class="st8" />
<path
   id="path125"
   d="M1186.9,237.9c-2.9,0-5.2-2.4-5.2-5.2c0,0,0-0.1,0-0.1c-0.1,0-0.2,0-0.2,0c0,0,0,0.1,0,0.1  c0,2.8-2.2,5.1-4.9,5.2c0,0.1,0,0.2,0,0.3c2.6,0.2,4.7,2.3,4.9,4.9c0.1,0,0.2,0,0.3,0c0.2-2.7,2.4-4.9,5.2-4.9c0,0,0.1,0,0.1,0  c0-0.1,0-0.2,0-0.2C1187,237.9,1186.9,237.9,1186.9,237.9z"
   class="st8" />
<path
   id="path127"
   d="M1337.9,185.9c-2.9,0-5.2-2.4-5.2-5.2c0,0,0-0.1,0-0.1c-0.1,0-0.2,0-0.2,0c0,0,0,0.1,0,0.1  c0,2.8-2.2,5.1-4.9,5.2c0,0.1,0,0.2,0,0.3c2.6,0.2,4.7,2.3,4.9,4.9c0.1,0,0.2,0,0.3,0c0.2-2.7,2.4-4.9,5.2-4.9c0,0,0.1,0,0.1,0  c0-0.1,0-0.2,0-0.2C1338,185.9,1337.9,185.9,1337.9,185.9z"
   class="st8" />
<path
   id="path129"
   d="M1272.9,114.9c-2.9,0-5.2-2.4-5.2-5.2c0,0,0-0.1,0-0.1c-0.1,0-0.2,0-0.2,0c0,0,0,0.1,0,0.1  c0,2.8-2.2,5.1-4.9,5.2c0,0.1,0,0.2,0,0.3c2.6,0.2,4.7,2.3,4.9,4.9c0.1,0,0.2,0,0.3,0c0.2-2.7,2.4-4.9,5.2-4.9c0,0,0.1,0,0.1,0  c0-0.1,0-0.2,0-0.2C1273,114.9,1272.9,114.9,1272.9,114.9z"
   class="st8" />
<path
   id="path131"
   d="M1245.9,70.9c-2.9,0-5.2-2.4-5.2-5.2c0,0,0-0.1,0-0.1c-0.1,0-0.2,0-0.2,0c0,0,0,0.1,0,0.1  c0,2.8-2.2,5.1-4.9,5.2c0,0.1,0,0.2,0,0.3c2.6,0.2,4.7,2.3,4.9,4.9c0.1,0,0.2,0,0.3,0c0.2-2.7,2.4-4.9,5.2-4.9c0,0,0.1,0,0.1,0  c0-0.1,0-0.2,0-0.2C1246,70.9,1245.9,70.9,1245.9,70.9z"
   class="st8" />
<path
   id="path133"
   d="M1191.9,65.9c-2.9,0-5.2-2.4-5.2-5.2c0,0,0-0.1,0-0.1c-0.1,0-0.2,0-0.2,0c0,0,0,0.1,0,0.1  c0,2.8-2.2,5.1-4.9,5.2c0,0.1,0,0.2,0,0.3c2.6,0.2,4.7,2.3,4.9,4.9c0.1,0,0.2,0,0.3,0c0.2-2.7,2.4-4.9,5.2-4.9c0,0,0.1,0,0.1,0  c0-0.1,0-0.2,0-0.2C1192,65.9,1191.9,65.9,1191.9,65.9z"
   class="st8" />
<path
   id="path135"
   d="M1158.9,95.9c-2.9,0-5.2-2.4-5.2-5.2c0,0,0-0.1,0-0.1c-0.1,0-0.2,0-0.2,0c0,0,0,0.1,0,0.1  c0,2.8-2.2,5.1-4.9,5.2c0,0.1,0,0.2,0,0.3c2.6,0.2,4.7,2.3,4.9,4.9c0.1,0,0.2,0,0.3,0c0.2-2.7,2.4-4.9,5.2-4.9c0,0,0.1,0,0.1,0  c0-0.1,0-0.2,0-0.2C1159,95.9,1158.9,95.9,1158.9,95.9z"
   class="st8" />
<path
   id="path137"
   d="M1277.9,163.9c-2.9,0-5.2-2.4-5.2-5.2c0,0,0-0.1,0-0.1c-0.1,0-0.2,0-0.2,0c0,0,0,0.1,0,0.1  c0,2.8-2.2,5.1-4.9,5.2c0,0.1,0,0.2,0,0.3c2.6,0.2,4.7,2.3,4.9,4.9c0.1,0,0.2,0,0.3,0c0.2-2.7,2.4-4.9,5.2-4.9c0,0,0.1,0,0.1,0  c0-0.1,0-0.2,0-0.2C1278,163.9,1277.9,163.9,1277.9,163.9z"
   class="st8" />
<path
   id="path139"
   d="M1332.9,306.9c-2.9,0-5.2-2.4-5.2-5.2c0,0,0-0.1,0-0.1c-0.1,0-0.2,0-0.2,0c0,0,0,0.1,0,0.1  c0,2.8-2.2,5.1-4.9,5.2c0,0.1,0,0.2,0,0.3c2.6,0.2,4.7,2.3,4.9,4.9c0.1,0,0.2,0,0.3,0c0.2-2.7,2.4-4.9,5.2-4.9c0,0,0.1,0,0.1,0  c0-0.1,0-0.2,0-0.2C1333,306.9,1332.9,306.9,1332.9,306.9z"
   class="st8" />
<path
   id="path141"
   d="M1356.9,124.9c-2.9,0-5.2-2.4-5.2-5.2c0,0,0-0.1,0-0.1c-0.1,0-0.2,0-0.2,0c0,0,0,0.1,0,0.1  c0,2.8-2.2,5.1-4.9,5.2c0,0.1,0,0.2,0,0.3c2.6,0.2,4.7,2.3,4.9,4.9c0.1,0,0.2,0,0.3,0c0.2-2.7,2.4-4.9,5.2-4.9c0,0,0.1,0,0.1,0  c0-0.1,0-0.2,0-0.2C1357,124.9,1356.9,124.9,1356.9,124.9z"
   class="st8" />
<path
   id="path143"
   d="M1424.9,263.9c-2.9,0-5.2-2.4-5.2-5.2c0,0,0-0.1,0-0.1c-0.1,0-0.2,0-0.2,0c0,0,0,0.1,0,0.1  c0,2.8-2.2,5.1-4.9,5.2c0,0.1,0,0.2,0,0.3c2.6,0.2,4.7,2.3,4.9,4.9c0.1,0,0.2,0,0.3,0c0.2-2.7,2.4-4.9,5.2-4.9c0,0,0.1,0,0.1,0  c0-0.1,0-0.2,0-0.2C1425,263.9,1424.9,263.9,1424.9,263.9z"
   class="st8" />
<path
   id="path145"
   d="M578.9,180.9c-2.9,0-5.2-2.4-5.2-5.2c0,0,0-0.1,0-0.1c-0.1,0-0.2,0-0.2,0c0,0,0,0.1,0,0.1  c0,2.8-2.2,5.1-4.9,5.2c0,0.1,0,0.2,0,0.3c2.6,0.2,4.7,2.3,4.9,4.9c0.1,0,0.2,0,0.3,0c0.2-2.7,2.4-4.9,5.2-4.9c0,0,0.1,0,0.1,0  c0-0.1,0-0.2,0-0.2C579,180.9,578.9,180.9,578.9,180.9z"
   class="st8" />
<path
   id="path147"
   d="M909.9,51.9c-2.9,0-5.2-2.4-5.2-5.2c0,0,0-0.1,0-0.1c-0.1,0-0.2,0-0.2,0c0,0,0,0.1,0,0.1c0,2.8-2.2,5.1-4.9,5.2  c0,0.1,0,0.2,0,0.3c2.6,0.2,4.7,2.3,4.9,4.9c0.1,0,0.2,0,0.3,0c0.2-2.7,2.4-4.9,5.2-4.9c0,0,0.1,0,0.1,0c0-0.1,0-0.2,0-0.2  C910,51.9,909.9,51.9,909.9,51.9z"
   class="st8" />
<path
   id="path149"
   d="M480.9,243.9c-2.9,0-5.2-2.4-5.2-5.2c0,0,0-0.1,0-0.1c-0.1,0-0.2,0-0.2,0c0,0,0,0.1,0,0.1  c0,2.8-2.2,5.1-4.9,5.2c0,0.1,0,0.2,0,0.3c2.6,0.2,4.7,2.3,4.9,4.9c0.1,0,0.2,0,0.3,0c0.2-2.7,2.4-4.9,5.2-4.9c0,0,0.1,0,0.1,0  c0-0.1,0-0.2,0-0.2C481,243.9,480.9,243.9,480.9,243.9z"
   class="st8" />
<path
   id="path151"
   d="M338.9,196.9c-2.9,0-5.2-2.4-5.2-5.2c0,0,0-0.1,0-0.1c-0.1,0-0.2,0-0.2,0c0,0,0,0.1,0,0.1  c0,2.8-2.2,5.1-4.9,5.2c0,0.1,0,0.2,0,0.3c2.6,0.2,4.7,2.3,4.9,4.9c0.1,0,0.2,0,0.3,0c0.2-2.7,2.4-4.9,5.2-4.9c0,0,0.1,0,0.1,0  c0-0.1,0-0.2,0-0.2C339,196.9,338.9,196.9,338.9,196.9z"
   class="st8" />
<path
   id="path153"
   d="M316.9,180.9c-2.9,0-5.2-2.4-5.2-5.2c0,0,0-0.1,0-0.1c-0.1,0-0.2,0-0.2,0c0,0,0,0.1,0,0.1  c0,2.8-2.2,5.1-4.9,5.2c0,0.1,0,0.2,0,0.3c2.6,0.2,4.7,2.3,4.9,4.9c0.1,0,0.2,0,0.3,0c0.2-2.7,2.4-4.9,5.2-4.9c0,0,0.1,0,0.1,0  c0-0.1,0-0.2,0-0.2C317,180.9,316.9,180.9,316.9,180.9z"
   class="st8" />
<path
   id="path155"
   d="M267.9,217.9c-2.9,0-5.2-2.4-5.2-5.2c0,0,0-0.1,0-0.1c-0.1,0-0.2,0-0.2,0c0,0,0,0.1,0,0.1  c0,2.8-2.2,5.1-4.9,5.2c0,0.1,0,0.2,0,0.3c2.6,0.2,4.7,2.3,4.9,4.9c0.1,0,0.2,0,0.3,0c0.2-2.7,2.4-4.9,5.2-4.9c0,0,0.1,0,0.1,0  c0-0.1,0-0.2,0-0.2C268,217.9,267.9,217.9,267.9,217.9z"
   class="st8" />
<path
   id="path157"
   d="M257.9,332.9c-2.9,0-5.2-2.4-5.2-5.2c0,0,0-0.1,0-0.1c-0.1,0-0.2,0-0.2,0c0,0,0,0.1,0,0.1  c0,2.8-2.2,5.1-4.9,5.2c0,0.1,0,0.2,0,0.3c2.6,0.2,4.7,2.3,4.9,4.9c0.1,0,0.2,0,0.3,0c0.2-2.7,2.4-4.9,5.2-4.9c0,0,0.1,0,0.1,0  c0-0.1,0-0.2,0-0.2C258,332.9,257.9,332.9,257.9,332.9z"
   class="st8" />
<path
   id="path166"
   d="m 971.3194,289.41368 c -2.80056,-7.93518 -12.16058,-9.97643 -17.73922,-3.8686 l -3.16057,3.46038 -4.76529,-2.13348 c -2.62092,-1.17342 -6.70236,-3.83425 -9.06987,-5.91295 -3.50255,-3.07529 -4.0891,-4.18208 -3.14809,-5.94037 3.49413,-6.52884 -1.14376,-15.2141 -8.12426,-15.2141 -3.07234,0 -3.69747,-0.57851 -4.87611,-4.51245 -0.74358,-2.48185 -1.16053,-8.69363 -0.92655,-13.80396 0.3499,-7.64228 1.12207,-10.70648 4.35024,-17.26317 3.11063,-6.31794 4.32694,-7.79599 5.86319,-7.12484 5.15276,2.2511 9.14957,1.85646 12.86553,-1.27032 3.25474,-2.73868 3.73082,-3.86998 3.73082,-8.86547 v -5.7262 l 6.59043,-1.91589 c 8.05149,-2.34063 18.30402,-2.55364 25.53023,-0.53043 5.0732,1.42041 5.40377,1.75798 5.40377,5.5181 0,5.36517 4.35957,9.76173 9.67959,9.76173 2.15766,0 4.57179,-0.64877 5.36473,-1.44172 3.16673,-3.16675 12.41363,12.7936 14.33913,24.74966 1.3084,8.12463 -0.037,18.64922 -3.2428,25.37249 -1.5642,3.28004 -2.2607,3.74685 -4.3852,2.93911 -3.981,-1.51359 -8.62783,-0.0474 -11.80088,3.7236 -3.24497,3.85643 -3.38477,4.6109 -1.84757,9.97081 1.29087,4.50102 -0.44853,5.96986 -11.46387,9.68066 -8.60325,2.89823 -8.27155,2.88565 -9.16738,0.34741 z m -10.04904,-12.65059 c 1.79582,-2.05393 2.63843,-4.51937 2.63843,-7.7199 0,-5.92145 -1.49861,-8.74058 -5.83972,-10.98545 -9.36906,-4.84493 -18.78568,0.91856 -18.78568,11.49787 0,11.00235 14.51017,15.75888 21.98697,7.20748 z m 25.79804,-16.43635 c 3.72453,-4.23244 3.42891,-9.29323 -0.78927,-13.51141 -6.71774,-6.71773 -17.67978,-2.71851 -17.67978,6.45003 0,10.03808 11.85943,14.57236 18.46905,7.06138 z m -47.60865,-11.17031 c 3.11374,-1.66642 5.63236,-7.87034 4.85214,-11.95185 -1.86099,-9.73509 -16.70862,-10.57295 -20.00092,-1.12865 -3.18986,9.15042 6.63719,17.63576 15.14878,13.0805 z m 62.61305,-12.16502 c 6.2504,-6.25031 1.2066,-18.2292 -7.67541,-18.2292 -4.69847,0 -10.55374,5.52271 -10.55374,9.95432 0,3.57633 1.91029,7.59349 4.58893,9.65009 3.30415,2.53684 10.44851,1.81655 13.64022,-1.37521 z m -34.17146,-0.8021 c 1.61165,-0.73431 3.79633,-3.16021 4.85485,-5.39087 5.81424,-12.2526 -8.89812,-23.62558 -19.27129,-14.89713 -8.79836,7.40332 -4.18053,21.62312 7.02204,21.62312 2.45528,0 5.78276,-0.6008 7.3944,-1.33512 z"
   style="fill:#ffaaaa;stroke-width:1.17264" /><path
   id="path168"
   d=""
   style="fill:#ffff00;stroke-width:1.17264" /><path
   id="path170"
   d=""
   style="fill:#ffff00;stroke-width:1.17264" /><path
   id="path172"
   d=""
   style="fill:#ffff00;stroke-width:1.17264" /><path
   id="path174"
   d="m 986.18869,89.54241 c -3.67834,-1.360706 -5.78076,-4.373829 -5.82566,-8.349143 -0.0532,-4.713991 1.72638,-7.406043 5.84502,-8.841809 4.34291,-1.513947 8.3727,-0.218942 11.0026,3.535772 5.14565,7.346429 -2.49316,16.810189 -11.02196,13.65518 z"
   style="fill:#ffff00;stroke-width:1.17264" /><path
   id="path176"
   d="m 1033.4027,158.93155 c -4.5224,-2.5936 -7.0696,-5.14085 -9.6632,-9.66326 -1.9371,-3.37769 -3.527,-7.30801 -3.5331,-8.73404 -0.01,-2.4529 0.5426,-2.61106 10.2496,-2.93159 8.1882,-0.27038 10.2606,-0.69409 10.2606,-2.09777 0,-1.40369 -2.0724,-1.82739 -10.2606,-2.09778 -8.0626,-0.26623 -10.2606,-0.70582 -10.2606,-2.05211 0,-1.40396 2.4504,-1.71331 13.5714,-1.71331 12.2925,0 13.5344,-0.19335 13.1795,-2.05211 -0.3355,-1.75691 -2.1973,-2.13647 -12.9423,-2.63844 l -12.5505,-0.58632 2.3804,-3.75212 c 2.936,-4.62798 11.751,-10.60683 17.1245,-11.61491 6.5197,-1.22309 13.8987,0.17808 19.9173,3.782 l 5.639,3.37656 -6.1564,0.35444 c -5.1982,0.29928 -6.1563,0.70991 -6.1563,2.63844 0,2.04262 0.854,2.28399 8.0811,2.28399 h 8.0811 l 1.8863,4.71429 c 1.0375,2.59285 1.8863,6.55051 1.8863,8.79479 v 4.0805 h -12.899 c -12.1173,0 -12.899,0.14214 -12.899,2.34528 0,2.19592 0.7817,2.34528 12.2759,2.34528 10.2598,0 12.1684,0.28012 11.6213,1.70572 -0.4526,1.1795 -2.8832,1.8126 -7.8785,2.05212 -5.4856,0.26303 -7.2239,0.76967 -7.2239,2.10535 0,1.24788 1.6877,1.92931 5.8088,2.34527 l 5.8088,0.58632 -4.0499,3.40246 c -5.7591,4.83847 -10.6046,6.56658 -18.377,6.55397 -5.3777,-0.009 -8.0507,-0.73957 -12.9216,-3.53302 z"
   style="fill:#ff00ff;stroke-width:1.17264" /><path
   id="path178"
   d="m 414.51282,144.87097 -6.97728,-7.05085 12.58157,-12.58157 12.58156,-12.58157 7.3151,7.3151 7.3151,7.3151 -12.27541,12.31732 c -6.75147,6.77453 -12.56519,12.31732 -12.91938,12.31732 -0.35419,0 -3.78375,-3.17288 -7.62126,-7.05085 z"
   style="fill:#00ff00;stroke-width:1.17264" /><path
   id="path180"
   d="m 448.16609,111.68596 -7.33749,-7.4033 2.43933,-2.20756 c 2.41859,-2.188795 2.50104,-2.145867 9.69385,5.04694 l 7.25451,7.25451 -2.35636,2.35635 -2.35635,2.35636 z"
   style="fill:#00ff00;stroke-width:1.17264" /><path
   id="path182"
   d=""
   style="fill:#00ff00;stroke-width:1.17264" /><path
   id="path184"
   d="m 373.50303,132.00651 c -2.1639,-2.39108 -2.13116,-2.4892 2.36794,-7.0967 l 4.56219,-4.67209 2.36437,2.36437 2.36438,2.36438 -4.73232,4.73232 -4.73233,4.73233 z"
   style="fill:#00ff00;stroke-width:1.17264" /><path
   id="path186"
   d="m 394.56578,127.26653 c -2.10454,-2.3255 -2.05452,-2.47244 2.39176,-7.02584 l 4.54125,-4.65066 2.72339,2.55849 2.7234,2.5585 -4.36224,4.46734 c -2.39923,2.45703 -4.70105,4.46733 -5.11515,4.46733 -0.4141,0 -1.72018,-1.06882 -2.90241,-2.37516 z"
   style="fill:#00ff00;stroke-width:1.17264" /><path
   id="path188"
   d="m 398.06601,106.13949 c -2.1296,-2.35318 -2.08204,-2.47985 2.74219,-7.30408 l 4.90937,-4.909371 2.60209,2.602092 2.60209,2.602092 -4.59136,4.701987 c -2.52526,2.5861 -4.93018,4.70199 -5.34428,4.70199 -0.41411,0 -1.72815,-1.07762 -2.9201,-2.39471 z"
   style="fill:#00ff00;stroke-width:1.17264" /><path
   id="path190"
   d=""
   style="fill:#00ff00;stroke-width:1.17264" /><path
   id="path192"
   d="m 453.18002,161.2535 c -2.1296,-2.35318 -2.08204,-2.47986 2.74219,-7.30408 l 4.90937,-4.90937 2.60209,2.60209 2.60209,2.60209 -4.59137,4.70199 c -2.52525,2.58609 -4.93018,4.70199 -5.34428,4.70199 -0.4141,0 -1.72814,-1.07762 -2.92009,-2.39471 z"
   style="fill:#00ff00;stroke-width:1.17264" /><path
   id="path194"
   d="m 432.09021,164.79096 c -2.10454,-2.3255 -2.05452,-2.47244 2.39176,-7.02584 l 4.54125,-4.65066 2.72339,2.55849 2.7234,2.5585 -4.36224,4.46734 c -2.39923,2.45703 -4.70105,4.46733 -5.11515,4.46733 -0.4141,0 -1.72018,-1.06882 -2.90241,-2.37516 z"
   style="fill:#00ff00;stroke-width:1.17264" /><path
   id="path196"
   d=""
   style="fill:#00ff00;stroke-width:1.17264" /><path
   id="path198"
   d="m 428.26207,186.77975 -2.57432,-2.74024 4.69199,-4.58161 4.69199,-4.58161 2.60209,2.60209 2.60209,2.6021 -4.71975,4.71975 -4.71976,4.71976 z"
   style="fill:#00ff00;stroke-width:1.17264" /><path
   id="path200"
   d="m 419.19119,177.68998 c -2.10454,-2.32549 -2.05452,-2.47244 2.39175,-7.02584 l 4.54126,-4.65066 2.72339,2.55849 2.7234,2.5585 -4.36224,4.46734 c -2.39924,2.45703 -4.70105,4.46734 -5.11515,4.46734 -0.4141,0 -1.72019,-1.06883 -2.90241,-2.37517 z"
   style="fill:#ffcc00;stroke-width:1.17264" /><path
   id="path202"
   d=""
   style="fill:#ffcc00;stroke-width:1.17264" /><path
   id="path204"
   d="m 441.14526,173.86388 -2.55849,-2.7234 4.45734,-4.35247 4.45734,-4.35248 2.5585,2.72339 2.55849,2.7234 -4.45734,4.35247 -4.45734,4.35248 z"
   style="fill:#ffcc00;stroke-width:1.17264" /><path
   id="path206"
   d="m 444.98924,151.89193 c -2.10455,-2.32549 -2.05452,-2.47243 2.39175,-7.02583 l 4.54125,-4.65067 2.7234,2.5585 2.72339,2.55849 -4.36224,4.46734 c -2.39923,2.45704 -4.70105,4.46734 -5.11515,4.46734 -0.4141,0 -1.72018,-1.06882 -2.9024,-2.37517 z"
   style="fill:#ffcc00;stroke-width:1.17264" /><path
   id="path208"
   d="m 386.04709,118.76672 -2.57433,-2.74024 4.69199,-4.58161 4.692,-4.58161 2.60209,2.60209 2.60209,2.6021 -4.71976,4.71976 -4.71976,4.71975 z"
   style="fill:#ffcc00;stroke-width:1.17264" /><path
   id="path210"
   d=""
   style="fill:#ffcc00;stroke-width:1.17264" /><path
   id="path212"
   d="m 381.66676,140.16555 c -2.10454,-2.32549 -2.05452,-2.47244 2.39175,-7.02584 l 4.54126,-4.65066 2.72339,2.55849 2.7234,2.5585 -4.36224,4.46734 c -2.39924,2.45703 -4.70105,4.46734 -5.11515,4.46734 -0.4141,0 -1.72019,-1.06883 -2.90241,-2.37517 z"
   style="fill:#ffcc00;stroke-width:1.17264" /><path
   id="path214"
   d=""
   style="fill:#ffcc00;stroke-width:1.17264" /><path
   id="path216"
   d=""
   style="fill:#ffcc00;stroke-width:1.17264" /><path
   id="path218"
   d=""
   style="fill:#ffcc00;stroke-width:1.17264" /><path
   id="path220"
   d=""
   style="fill:#ffcc00;stroke-width:1.17264" /><path
   id="path222"
   d="m 407.15458,115.24881 -2.57433,-2.74025 4.692,-4.58161 4.69199,-4.5816 2.60209,2.60209 2.60209,2.60209 -4.71976,4.71976 -4.71976,4.71976 z"
   style="fill:#ffcc00;stroke-width:1.17264" /><path
   id="path224"
   d="m 456.3506,103.45526 c -2.68664,-2.73749 -4.8848,-5.353049 -4.8848,-5.81235 0,-0.459301 1.3432,-0.835092 2.9849,-0.835092 3.55094,0 8.74148,4.801302 8.74148,8.085962 0,4.06284 -1.81744,3.6807 -6.84158,-1.43852 z"
   style="fill:#ffcc00;stroke-width:1.17264" /><path
   id="path226"
   d="m 443.22868,116.12734 c -3.48741,-3.53127 -5.81125,-6.4205 -5.16408,-6.4205 1.52556,0 12.85718,11.48864 12.08915,12.25667 -0.32138,0.32138 -3.43766,-2.30489 -6.92507,-5.83617 z"
   style="fill:#ffcc00;stroke-width:1.17264" /><path
   id="path228"
   d=""
   style="fill:#ffcc00;stroke-width:1.17264" /><path
   id="path230"
   d=""
   style="fill:#ffcc00;stroke-width:1.17264" /><path
   id="path232"
   d=""
   style="fill:#ffcc00;stroke-width:1.17264" /><path
   id="path234"
   d=""
   style="fill:#ffcc00;stroke-width:1.17264" /><path
   id="path236"
   d=""
   style="fill:#ffcc00;stroke-width:1.17264" /><path
   id="path238"
   d=""
   style="fill:#ffcc00;stroke-width:1.17264" /><path
   id="path240"
   d="m 985.01629,97.315092 c -2.25733,-0.852883 -4.71453,-1.351413 -5.46044,-1.107846 -0.74591,0.243568 -2.0024,-1.117229 -2.79221,-3.023993 -0.78981,-1.906764 -2.29027,-3.94533 -3.33435,-4.530148 -3.06155,-1.714843 -2.62261,-12.951528 0.60831,-15.572669 1.37866,-1.118464 2.83518,-3.34251 3.23671,-4.942324 0.45864,-1.827357 1.32865,-2.679049 2.34017,-2.290892 0.88557,0.339823 3.51862,-0.179563 5.85124,-1.154192 3.78381,-1.580979 4.69843,-1.580979 8.48224,0 2.33262,0.974629 4.96567,1.494015 5.85124,1.154192 1.0115,-0.388157 1.8815,0.463535 2.3402,2.290892 0.4015,1.599814 1.858,3.82386 3.2367,4.942324 3.5881,2.910917 3.5881,12.882608 0,15.793526 -1.3787,1.118463 -2.8259,3.305332 -3.216,4.859707 -0.5574,2.220916 -1.6529,2.937611 -5.11549,3.346681 -2.42339,0.2863 -5.1977,0.805146 -6.16513,1.152991 -0.96743,0.347845 -3.60586,-0.06536 -5.86319,-0.918249 z m 10.54079,-4.604812 c 4.81952,-2.492267 7.04882,-6.235511 7.04882,-11.835861 0,-12.143874 -14.33161,-17.600495 -22.85653,-8.702405 -2.65905,2.775452 -3.33243,4.55159 -3.33243,8.789732 0,10.237792 10.08765,16.429759 19.14014,11.748534 z"
   style="fill:#ff6600;stroke-width:1.17264" /></svg>
